<?xml version="1.0" encoding="UTF-8"?>
<svg id="Layer_1" xmlns="http://www.w3.org/2000/svg" version="1.1" xmlns:xlink="http://www.w3.org/1999/xlink" viewBox="0 0 1023.42 211.94">
  <!-- Generator: Adobe Illustrator 29.8.1, SVG Export Plug-In . SVG Version: 2.1.1 Build 2)  -->
  <defs>
    <style>
      .st0 {
        clip-path: url(#clippath-6);
      }

      .st1 {
        clip-path: url(#clippath-7);
      }

      .st2 {
        clip-path: url(#clippath-17);
      }

      .st3 {
        stroke: #f1f9fe;
        stroke-dasharray: 0 8.24;
        stroke-width: 3.36px;
      }

      .st3, .st4, .st5, .st6, .st7, .st8, .st9, .st10, .st11, .st12, .st13, .st14, .st15, .st16, .st17 {
        fill: none;
      }

      .st3, .st4, .st5, .st6, .st7, .st8, .st9, .st10, .st12, .st13, .st14, .st15, .st16, .st17 {
        stroke-linecap: round;
        stroke-linejoin: round;
      }

      .st18 {
        clip-path: url(#clippath-15);
      }

      .st4 {
        stroke-dasharray: 0 6.22;
      }

      .st4, .st6 {
        stroke: #c5e7fb;
        stroke-width: 2.64px;
      }

      .st5, .st9 {
        stroke: #e3f3fe;
        stroke-width: 3.12px;
      }

      .st19 {
        clip-path: url(#clippath-18);
      }

      .st20 {
        clip-path: url(#clippath-4);
      }

      .st21 {
        clip-path: url(#clippath-9);
      }

      .st22 {
        clip-path: url(#clippath-10);
      }

      .st7 {
        stroke: #a2d9f8;
        stroke-dasharray: 0 4.81;
        stroke-width: 2.16px;
      }

      .st8 {
        stroke: #78ccf4;
        stroke-dasharray: 0 3.41;
        stroke-width: 1.68px;
      }

      .st9 {
        stroke-dasharray: 0 7.62;
      }

      .st23 {
        clip-path: url(#clippath-11);
      }

      .st10 {
        stroke: #fff;
        stroke-dasharray: 0 8.93;
        stroke-width: 3.6px;
      }

      .st24 {
        fill: url(#radial-gradient);
      }

      .st12, .st15 {
        stroke: #b4e0f9;
        stroke-width: 2.4px;
      }

      .st13 {
        stroke: #5dc5f2;
        stroke-dasharray: 0 2.7;
        stroke-width: 1.44px;
      }

      .st25 {
        fill: #63c3d1;
      }

      .st26 {
        clip-path: url(#clippath-1);
      }

      .st27 {
        clip-path: url(#clippath-5);
      }

      .st28 {
        clip-path: url(#clippath-8);
      }

      .st29 {
        clip-path: url(#clippath-3);
      }

      .st30 {
        clip-path: url(#clippath-12);
      }

      .st31 {
        clip-path: url(#clippath-14);
      }

      .st14, .st17 {
        stroke: #d4edfc;
        stroke-width: 2.88px;
      }

      .st15 {
        stroke-dasharray: 0 5.5;
      }

      .st32 {
        clip-path: url(#clippath-16);
      }

      .st33 {
        clip-path: url(#clippath-2);
      }

      .st16 {
        stroke: #8ed3f6;
        stroke-dasharray: 0 4.1;
        stroke-width: 1.92px;
      }

      .st34 {
        clip-path: url(#clippath-13);
      }

      .st17 {
        stroke-dasharray: 0 6.87;
      }

      .st35 {
        fill: #005ca9;
      }

      .st36 {
        clip-path: url(#clippath);
      }
    </style>
    <clipPath id="clippath">
      <rect class="st11" x="28.87" y="7.82" width="965.67" height="186.39"/>
    </clipPath>
    <clipPath id="clippath-1">
      <rect class="st11" x="28.87" y="7.82" width="965.67" height="186.39"/>
    </clipPath>
    <clipPath id="clippath-2">
      <path class="st11" d="M428.56,82.6c0,26.68,21.62,48.31,48.3,48.31s48.3-21.63,48.3-48.31-21.62-48.29-48.3-48.29-48.3,21.62-48.3,48.29"/>
    </clipPath>
    <radialGradient id="radial-gradient" cx="-44.59" cy="-514.25" fx="-44.59" fy="-514.25" r=".97" gradientTransform="translate(-1599.6 24031.34) rotate(-180) scale(46.57 -46.57)" gradientUnits="userSpaceOnUse">
      <stop offset="0" stop-color="#007ac2"/>
      <stop offset="0" stop-color="#007ac2"/>
      <stop offset=".39" stop-color="#125596"/>
      <stop offset=".79" stop-color="#223470"/>
      <stop offset="1" stop-color="#292862"/>
    </radialGradient>
    <clipPath id="clippath-3">
      <rect class="st11" x="28.87" y="7.82" width="965.67" height="186.39"/>
    </clipPath>
    <clipPath id="clippath-4">
      <rect class="st11" x="383.9" y="7.82" width="188.4" height="147.32"/>
    </clipPath>
    <clipPath id="clippath-5">
      <rect class="st11" x="426.57" y="32.42" width="100.29" height="100.29"/>
    </clipPath>
    <clipPath id="clippath-6">
      <rect class="st11" x="422.01" y="33.03" width="109.86" height="100.1"/>
    </clipPath>
    <clipPath id="clippath-7">
      <rect class="st11" x="417.73" y="78.98" width="3.12" height="3.12"/>
    </clipPath>
    <clipPath id="clippath-8">
      <rect class="st11" x="420.07" y="29.74" width="116.84" height="104.78"/>
    </clipPath>
    <clipPath id="clippath-9">
      <rect class="st11" x="413.3" y="78.09" width="2.88" height="2.88"/>
    </clipPath>
    <clipPath id="clippath-10">
      <rect class="st11" x="413.71" y="26.92" width="128.24" height="109.72"/>
    </clipPath>
    <clipPath id="clippath-11">
      <rect class="st11" x="408.88" y="77.19" width="2.64" height="2.64"/>
    </clipPath>
    <clipPath id="clippath-12">
      <rect class="st11" x="407.73" y="23.89" width="139.27" height="115.34"/>
    </clipPath>
    <clipPath id="clippath-13">
      <rect class="st11" x="404.46" y="76.3" width="2.4" height="2.4"/>
    </clipPath>
    <clipPath id="clippath-14">
      <rect class="st11" x="402.9" y="21.4" width="149.15" height="120.74"/>
    </clipPath>
    <clipPath id="clippath-15">
      <rect class="st11" x="398.15" y="17.93" width="158.95" height="127.31"/>
    </clipPath>
    <clipPath id="clippath-16">
      <rect class="st11" x="393.15" y="14.51" width="169.02" height="133.95"/>
    </clipPath>
    <clipPath id="clippath-17">
      <rect class="st11" x="388.52" y="11.14" width="178.71" height="140.62"/>
    </clipPath>
    <clipPath id="clippath-18">
      <rect class="st11" x="383.9" y="7.82" width="188.4" height="147.32"/>
    </clipPath>
  </defs>
  <g id="Artwork_50">
    <g class="st36">
      <polygon class="st35" points="540.81 131.06 540.81 32.41 558.38 32.41 558.38 115.52 594.73 115.52 594.73 131.06 540.81 131.06"/>
      <g class="st26">
        <path class="st35" d="M627.44,92.41c0,16.21,10.27,24.59,22.71,24.59s23.51-8.51,23.51-24.59v-60h17.43v60c0,25.27-18.51,40.27-40.95,40.27s-40.41-14.59-40.41-40.27v-60h17.7v60Z"/>
        <polygon class="st35" points="706.36 131.06 739.33 78.09 710.82 32.41 731.09 32.41 749.6 62.41 767.85 32.41 787.71 32.41 759.33 77.82 792.71 131.06 772.44 131.06 749.33 93.36 726.22 131.06 706.36 131.06"/>
        <path class="st35" d="M797.68,51.01v-15.59h-3.48v-2.81h10.16v2.81h-3.65v15.59h-3.03ZM806.59,51.01v-18.4h2.64l6.72,8.99,6.51-8.99h2.77v18.4h-3.03v-13.57l-5.63,7.98h-1.22l-5.76-7.73v13.32h-3.02Z"/>
        <path class="st25" d="M836.3,131.06V32.41h15.14l47.3,63.51,2.03,3.38c0-.27-.27-2.3-.27-4.05v-62.84h17.57v98.65h-14.73l-47.57-64.46c-.95-1.22-2.17-3.11-2.17-3.25,0,.14.27,2.3.27,3.92v63.78h-17.57Z"/>
        <polygon class="st25" points="943.74 131.06 943.74 32.41 994.54 32.41 994.54 47.82 961.3 47.82 961.3 75.39 992.52 75.39 992.52 90.79 961.3 90.79 961.3 131.06 943.74 131.06"/>
        <path class="st25" d="M541.15,193.65v-34.2h3.98l17.71,24.31.61.94c-.05-.09-.1-.7-.1-1.08v-24.17h4.69v34.2h-3.75l-17.94-24.79c-.19-.28-.61-.93-.61-.93,0,0,.09.75.09,1.12v24.6h-4.68Z"/>
        <polygon class="st25" points="585.84 193.65 585.84 159.45 604.96 159.45 604.96 163.85 590.53 163.85 590.53 174.76 604.63 174.76 604.63 179.18 590.53 179.18 590.53 189.24 605.85 189.24 605.85 193.65 585.84 193.65"/>
        <path class="st25" d="M627.02,180.71c0,6.61,4.12,9.09,8.62,9.09s8.76-2.53,8.76-9.09v-21.27h4.64v21.27c0,8.15-5.76,13.49-13.4,13.49s-13.35-5.06-13.35-13.49v-21.27h4.73v21.27Z"/>
        <path class="st25" d="M666.61,193.65v-34.2h11.05c6.37,0,10.59,4.54,10.59,10.07s-4.64,9.8-9.74,9.8l12.6,14.33h-6l-13.82-15.98v15.98h-4.69ZM671.3,175.61h5.43c4.22,0,6.65-2.62,6.65-6.27,0-2.35-2.1-5.48-6.56-5.48h-5.53v11.76Z"/>
        <path class="st25" d="M703.62,176.45c0-9.98,7.45-17.57,17.33-17.57,10.59,0,17.71,7.73,17.71,17.66s-7.83,17.66-17.48,17.66-17.57-7.45-17.57-17.76M733.79,176.36c0-7.4-5.24-12.88-12.79-12.88s-12.51,5.48-12.51,12.97,5.95,13.16,12.7,13.16,12.6-5.06,12.6-13.25"/>
        <polygon class="st25" points="772.86 193.65 772.86 159.45 789.73 159.45 789.73 163.85 777.54 163.85 777.54 174.76 789.02 174.76 789.02 179.18 777.54 179.18 777.54 193.65 772.86 193.65"/>
        <path class="st25" d="M800.45,193.65l13.12-34.2h3l13.21,34.2h-5.2l-4.12-11.06h-10.92l-4.12,11.06h-4.97ZM811.18,178.19h7.64l-3.56-9.56c-.14-.33-.28-.79-.28-.89l-.23.84-3.56,9.61Z"/>
        <path class="st25" d="M872.23,187.79c-2.62,3.65-7.5,6.42-13.49,6.42-8.34,0-16.78-6.79-16.78-17.66,0-9.88,7.13-17.66,16.96-17.66,6.18,0,9.89,2.1,12.65,5.34l-3.46,3.09c-2.35-2.44-5.34-3.83-9.09-3.83-6.65,0-12.18,5.15-12.18,12.97,0,8.81,6.75,13.16,12,13.16,3.27,0,7.12-1.31,10.02-4.73l3.37,2.91Z"/>
        <polygon class="st25" points="893.59 193.65 893.59 163.85 886.61 163.85 886.61 159.45 905.53 159.45 905.53 163.85 898.27 163.85 898.27 193.65 893.59 193.65"/>
        <path class="st25" d="M917.85,176.45c0-9.98,7.45-17.57,17.33-17.57,10.59,0,17.71,7.73,17.71,17.66s-7.83,17.66-17.47,17.66-17.57-7.45-17.57-17.76M948.03,176.36c0-7.4-5.25-12.88-12.79-12.88s-12.51,5.48-12.51,12.97,5.95,13.16,12.7,13.16,12.6-5.06,12.6-13.25"/>
        <path class="st25" d="M969.29,193.65v-34.2h11.06c6.37,0,10.59,4.54,10.59,10.07s-4.64,9.8-9.75,9.8l12.6,14.33h-6l-13.82-15.98v15.98h-4.69ZM973.98,175.61h5.44c4.22,0,6.66-2.62,6.66-6.27,0-2.35-2.11-5.48-6.56-5.48h-5.53v11.76Z"/>
        <path class="st35" d="M60.42,62.24h-31.55v-31.54h31.55v31.54ZM29.78,61.34h29.75v-29.75h-29.75v29.75Z"/>
        <path class="st35" d="M35.42,50.81c.7.63,1.84.97,2.74.97,1.33,0,2.25-.59,2.25-1.83,0-1.12-1.03-1.73-2.2-2.33-1.87-.95-3.78-1.78-3.78-4.29,0-1.94,1.44-3.38,3.8-3.38,1.32,0,2.52.4,3.55,1.12l-.97,1.48c-.81-.59-1.49-.83-2.6-.83-1.03,0-1.89.52-1.89,1.51,0,1.43,1.26,1.91,2.89,2.72,1.49.74,3.08,1.69,3.08,3.89,0,2.36-1.84,3.69-4.03,3.69-1.34,0-2.65-.34-3.86-1.33l1.03-1.39Z"/>
        <path class="st35" d="M45.47,46.77c0-3.86,1.62-6.83,4.79-6.83s4.72,3.07,4.72,6.72c0,3.89-1.6,6.86-4.81,6.86-2.57,0-4.7-2.22-4.7-6.75M53.08,46.77c0-2.34-.63-5.13-2.85-5.13s-2.87,2.67-2.87,5.11.9,5.08,2.81,5.08c2.23,0,2.9-2.7,2.9-5.06"/>
      </g>
      <g class="st33">
        <rect class="st24" x="409.83" y="15.58" width="134.06" height="134.06" transform="translate(142.29 432.29) rotate(-56.09)"/>
      </g>
      <g class="st29">
        <g class="st20">
          <g class="st27">
            <path class="st10" d="M525.06,82.56c0,13.35-5.41,25.44-14.16,34.19-8.75,8.75-20.84,14.16-34.19,14.16s-25.43-5.41-34.18-14.16c-8.75-8.75-14.16-20.84-14.16-34.19,0-26.7,21.64-48.33,48.34-48.33,13.35,0,25.44,5.41,34.19,14.16,8.75,8.75,14.16,20.83,14.16,34.18Z"/>
          </g>
          <g class="st0">
            <path class="st3" d="M475.32,36.83c13.19-4.69,30.85-1.57,38.15,9.3,7.29,10.94,17.25,22.12,16.71,37.6-.49,13.98-8.53,22.72-18.67,30.28-2.42,1.8-4.95,3.53-7.49,5.29-8.05,5.56-17.39,10.13-27.54,11.65-13.25,1.93-25.32-1.71-35.98-10.6-6.04-5.03-8.18-10.07-9.27-15.66-1.01-5.19-1.15-10.71-4.43-16.31-2.53-4.32-3.48-4.51-2.96-6.83,4.85-21.69,28.62-36.6,51.49-44.72Z"/>
          </g>
          <g class="st1">
            <line class="st5" x1="419.29" y1="80.54" x2="419.29" y2="80.54"/>
          </g>
          <g class="st28">
            <path class="st9" d="M422.07,73.48c8.64-14.6,33.58-27.01,51.85-34.05,11.04-13.76,36.29-8.56,42.11,4.44,5.87,13.11,20.38,23.41,19.25,41.03-.93,14.6-11.66,20-23.18,26.37-2.77,1.53-5.57,3.11-8.24,4.95-8.31,5.73-17.52,11.76-27.63,14.76-13.13,3.9-25.45,2.23-37.79-7.03-8.73-6.56-9.97-12.79-9.9-19.61.07-6.5,1.2-13.27-4.35-20.04-.97-1.18-1.83-1.97-2.56-2.51"/>
          </g>
          <g class="st21">
            <line class="st14" x1="414.75" y1="79.53" x2="414.75" y2="79.53"/>
          </g>
          <g class="st22">
            <path class="st17" d="M418.63,73.92c10.76-10.99,38.16-21.43,53.89-31.89,9.88-20.64,41.7-15.54,46.07-.41,4.42,15.31,23.54,24.7,21.8,44.46-1.34,15.22-14.81,17.27-27.69,22.46-3.12,1.25-6.19,2.69-8.99,4.62-8.57,5.91-17.66,13.36-27.72,17.87-13.02,5.84-25.65,6.27-39.59-3.47-11.47-8.01-11.74-15.5-10.54-23.56,1.17-7.8,3.54-15.81-4.27-23.77-2.93-2.98-5.15-3.4-6.44-2.97"/>
          </g>
          <g class="st23">
            <line class="st6" x1="410.2" y1="78.52" x2="410.2" y2="78.52"/>
          </g>
          <g class="st30">
            <path class="st4" d="M415.07,74.7c12.73-7.53,42.75-16.16,56.06-30.06,8.72-27.52,47.11-22.51,50.03-5.27,2.96,17.5,26.73,25.99,24.34,47.88-1.73,15.85-17.95,14.53-32.21,18.55-3.47.98-6.81,2.27-9.73,4.28-8.83,6.08-17.79,14.95-27.82,20.98-12.91,7.77-25.87,10.36-41.39.1-14.25-9.42-13.5-18.22-11.18-27.51,2.28-9.1,5.88-18.34-4.18-27.5-5.76-5.25-9.39-2.71-9.95-.22"/>
          </g>
          <g class="st34">
            <line class="st12" x1="405.66" y1="77.51" x2="405.66" y2="77.51"/>
          </g>
          <g class="st31">
            <path class="st15" d="M410.9,75.86c14.96-3.75,50.91-9.32,58.83-28.62,13.37-32.59,52.52-29.49,54-10.13,1.51,19.7,29.95,27.29,26.89,51.31-2.1,16.48-21.1,11.78-36.72,14.64-3.83.7-7.43,1.85-10.48,3.95-9.09,6.26-17.93,16.54-27.91,24.1-12.81,9.69-26.11,14.47-43.2,3.66-17.05-10.79-15.25-20.92-11.81-31.46,3.39-10.4,8.21-20.86-4.1-31.23-8.29-6.99-12.96-.74-12.22,3.21"/>
          </g>
          <g class="st18">
            <path class="st7" d="M468.34,49.84c11.23-40.24,57.89-36.47,57.96-14.98,0,21.89,33.19,28.58,29.44,54.74-2.45,17.11-24.25,9.02-41.23,10.73-4.18.42-8.05,1.43-11.23,3.61-9.35,6.43-18.07,18.13-28.01,27.21-12.71,11.61-26.36,18.6-45,7.23-19.86-12.12-17-23.62-12.45-35.41,4.52-11.69,10.54-23.38-4.02-34.97-12.21-9.72-17.77,4.89-12.69,8.5,10.15.54,60.11-1.19,67.22-26.65Z"/>
          </g>
          <g class="st32">
            <path class="st16" d="M466.94,52.44c8.65-47.67,63.29-43.45,61.92-19.84-1.45,24.08,36.44,29.89,31.98,58.16-2.8,17.74-27.4,6.26-45.74,6.82-4.53.14-8.67,1.01-11.98,3.28-9.61,6.61-18.23,19.7-28.1,30.32-12.64,13.51-26.61,22.75-46.8,10.79-22.69-13.43-18.75-26.32-13.09-39.36,5.64-12.98,12.88-25.89-3.93-38.7-14.16-10.79-21.16,7.64-14.63,11.57,11.05,6.64,65.12,5.92,70.37-23.04Z"/>
          </g>
          <g class="st2">
            <path class="st8" d="M465.54,55.05c5.84-54.89,68.7-50.43,65.88-24.69-2.91,26.27,39.72,31.19,34.53,61.59-3.14,18.38-30.54,3.47-50.25,2.91-4.89-.15-9.29.59-12.72,2.94-9.86,6.78-18.37,21.29-28.19,33.43-12.53,15.44-26.85,26.9-48.6,14.36-25.52-14.72-20.48-29.01-13.72-43.31,6.78-14.25,15.19-28.38-3.85-42.43-16.12-11.83-23.65,9.04-16.58,14.63,13.03,10.3,70.04,13.29,73.52-19.42Z"/>
          </g>
          <g class="st19">
            <path class="st13" d="M571.06,93.11c-4.34,23.74-50.34-10.67-68.23,1.6-23,15.8-37.06,77.93-78.7,54.46-28.37-15.99-22.25-31.71-14.36-47.26,7.89-15.55,17.54-30.91-3.77-46.16-18.05-12.91-26.15,10.59-18.52,17.7,15.23,14.16,74.92,20.85,76.66-15.81,2.94-61.92,74.11-57.4,69.84-29.55-4.36,28.46,43.01,32.51,37.07,65.01Z"/>
          </g>
        </g>
        <path class="st35" d="M476.85,37.52c24.86,0,45.09,20.23,45.09,45.09s-20.22,45.08-45.09,45.08-45.08-20.23-45.08-45.08,20.23-45.09,45.08-45.09M476.85,33.02c-27.38,0-49.59,22.2-49.59,49.59s22.2,49.59,49.59,49.59,49.59-22.2,49.59-49.59-22.2-49.59-49.59-49.59"/>
        <path class="st35" d="M157.51,115.38c-8.38,10.28-20.81,17.3-38.11,17.3-27.02,0-49.32-19.73-49.32-51.22,0-29.05,21.35-50.67,49.46-50.67,16.08,0,26.89,5.14,35.94,15l-11.08,11.49c-6.62-6.76-14.73-10.4-24.73-10.4-18.12,0-31.49,14.06-31.49,34.46,0,22.84,14.73,35.27,31.35,35.27,10.94,0,19.59-4.6,26.89-12.43l11.08,11.21Z"/>
        <polygon class="st35" points="177.78 131.06 177.78 32.41 234.13 32.41 234.13 47.82 195.35 47.82 195.35 75.12 232.38 75.12 232.38 90.65 195.35 90.65 195.35 115.52 236.43 115.52 236.43 131.06 177.78 131.06"/>
        <path class="st35" d="M260.62,131.06V32.41h30.13c18.79,0,31.49,10,31.49,26.08,0,10.54-5.67,18.24-13.11,21.89,9.59,1.9,18.38,11.49,18.38,23.25,0,15-11.35,27.43-33.38,27.43h-33.51ZM278.19,74.85h9.87c12.3,0,16.62-6.35,16.62-14.6s-5.68-12.43-16.08-12.43h-10.41v27.03ZM278.19,115.52h15.27c11.08,0,15.81-5,15.81-12.97s-5.68-12.16-15.14-12.16h-15.95v25.13Z"/>
        <path class="st35" d="M348.46,131.06V32.41h33.65c19.59,0,32.3,12.7,32.3,29.19,0,15.27-11.22,26.35-25.14,28.1l31.35,41.36h-20.95l-33.65-46.36v46.36h-17.57ZM366.03,76.74h14.73c9.86,0,15.81-6.22,15.81-15.41,0-6.76-5.81-13.52-15.68-13.52h-14.86v28.92Z"/>
      </g>
    </g>
  </g>
</svg>